<svg id="Layer_1" data-name="Layer 1" xmlns="http://www.w3.org/2000/svg" viewBox="0 0 956.4 322.36"><defs><style>.cls-1{fill:#d10020;}</style></defs><title>berkeley-group-color</title><path d="M340.3,279.2v36h-6.9v-6.9h-.2c-3.8,5.3-11.3,7.9-19.5,7.9-16.9,0-29.1-12.2-29.1-38.5s12.2-38.5,29.1-38.5c12.7,0,22.4,6,27,22l-7.9,1.5c-3.7-11.9-9.9-16.5-18.6-16.5-11,0-21.4,7.5-21.4,31.4S303.2,309,314.2,309c12.2,0,17.9-7.5,17.9-16.6v-6.3H315.2v-7h25.2v.1Zm12.2-17.8H360V272h.2c4.1-7.3,8.5-11.4,17.5-11.4v7.5c-9.3.2-14.2,6.3-17.7,17.4v29.9h-7.5v-54Zm49.6,54.9c-14.6,0-22.1-12.4-22.1-27.9s7.3-27.9,22.1-27.9c14.6,0,22.1,12.4,22.1,27.9S416.9,316.3,402.1,316.3Zm0-49.6c-8.9,0-14.6,7.6-14.6,21.5s5.6,21.5,14.6,21.5,14.6-7.6,14.6-21.5c0-13.7-5.6-21.5-14.6-21.5Zm63.4,48.5v-7.3h-.2a22.49,22.49,0,0,1-16,8.2c-7.9,0-15.6-4.1-15.6-15.7V261.2h7.5v38.9c0,7.2,3.4,9.5,8.9,9.5s12.1-4.6,15.4-8.2V261.1H473V315h-7.5v.2ZM488,335.1V261.4h7.5v6.3h.2c2.7-4,8.9-7.3,14-7.3,9.5,0,22.1,6.4,22.1,27.9,0,20.9-12.5,27.9-21.7,27.9-5,0-10.1-2.6-14.2-6l-.5-.2v25H488Zm7.4-32.7c4,4.4,9.2,7.5,13.6,7.5,8.7,0,15.3-5.6,15.3-22,0-13.7-6-21.2-15.3-21.2-4.7,0-8.2,2.1-13.6,7.3Z" transform="translate(-4.6 -12.74)"/><path d="M78.2,64.5a5.41,5.41,0,0,0-.2,4.3,5,5,0,0,0,6.7,2.6,101.14,101.14,0,0,1,79.6,0A5,5,0,0,0,170.93,69a1,1,0,0,0,.07-.15,5,5,0,0,0-.2-4.3l16.5-25.9c2.4-4.6-1.4-8.1-4.3-6.6s-5.6,3.2-5.6,3.2c-3.5-1.8-7.2-3.5-10.8-5l.2-.8a12.81,12.81,0,0,0-9.6-15,12,12,0,0,0-9.5,1.7,11.67,11.67,0,0,0-5.3,7.2,50.6,50.6,0,0,0-5.3-.6,12.7,12.7,0,0,0-24.8,0l-5.3.6a12.49,12.49,0,0,0-14.8-8.9,12.69,12.69,0,0,0-9.6,15,1.2,1.2,0,0,0,.2.8c-3.7,1.5-7.3,3.2-10.8,5,0,0-2.7-1.7-5.6-3.2s-6.7,2-4.3,6.6L78.2,64.5Zm89,2.8c-.2.3-.3.5-.5.5s-.5.2-.8,0a104.68,104.68,0,0,0-82.8,0c-.3.2-.6,0-.8,0s-.3-.2-.5-.5c-.2-.5.3-1.2,1.2-1.7l.5-.2a107,107,0,0,1,81.8,0l.5.2c1.1.4,1.6,1.2,1.4,1.7ZM146.9,25.1a7.7,7.7,0,0,1,15,3.4,7.7,7.7,0,0,1-15-3.4Zm-22.3-7.4a7.6,7.6,0,1,1-7.6,7.8v-.2a7.5,7.5,0,0,1,7.4-7.6ZM93.1,19.3a7.69,7.69,0,1,1-5.8,9.2,7.6,7.6,0,0,1,5.62-9.16ZM83.3,48.2A21.2,21.2,0,0,0,97,38.4a21.88,21.88,0,0,0,12.1,3.7,20.84,20.84,0,0,0,15.4-6.6A21.59,21.59,0,0,0,152,38.4a22.73,22.73,0,0,0,13.7,9.8,20.24,20.24,0,0,0,9.8-.2L167,61.4a112.22,112.22,0,0,0-85.2,0L73.3,48a21.15,21.15,0,0,0,10,.2Z" transform="translate(-4.6 -12.74)"/><path d="M231.3,156.1a9.6,9.6,0,0,0-9.8,9.4v.4c.3,2.3.2,3.5-.5,2-2.1-5.5.2-8.4,2-10.1l1.8-1.7c7.3-6.9,19.8-18.2,19.8-31.6,0-19.2-20.9-25-20.9-25a17.6,17.6,0,0,0,2-.9,8.4,8.4,0,0,0,2.7-7.6c-.3-3.4-1.7-5.6-4-6.9,2.1-1.7,6-4.9,3.7-9.9a8.49,8.49,0,0,0-5.2-4.9l-.6-.2a8.79,8.79,0,0,0-8.4-4.3,6.59,6.59,0,0,0-3.5-3.5,7.33,7.33,0,0,0-3.2-.6A17.67,17.67,0,0,0,206,59c-3.5-3.5-6.4-3.7-8.4-3.2l-2.3.5s-8.4-4.1-16.9,4-6.7,17.4-6.7,17.4a98.72,98.72,0,0,0-94.4,0s2-9.3-6.7-17.4c-8.5-8.1-16.9-4-16.9-4l-2.3-.5c-1.8-.5-4.9-.2-8.2,3.2A6.57,6.57,0,0,0,42,60.7a9,9,0,0,0-3.2.6,6.59,6.59,0,0,0-3.5,3.5,8,8,0,0,0-4.6.8,9.23,9.23,0,0,0-3.8,3.5l-.6.2a8.76,8.76,0,0,0-5.2,4.9c-2.3,5,1.5,8.2,3.7,9.9-2.3,1.2-3.7,3.5-4,6.9-.5,4.3,1.5,6.6,2.7,7.6a8.82,8.82,0,0,0,2,.9s-20.9,6-20.9,25c0,13.4,12.4,24.9,19.8,31.6l1.8,1.7c1.8,1.7,4.1,4.7,2,10.1-.6,1.5-.8.3-.5-2s-1.7-9.8-9.8-9.8c-15.7,0-11.9,25.8,7.8,25.8a38.1,38.1,0,0,0,13.4-2.6c-3.5,3.8-3.2,9.8-2.7,14.6l.2,2.9c0,1.5.2,3.4-.9,3.7-3.4.6-3.5-5.3-3.5-5.3-2.9,1.2-4.7,6-4.4,9.6a9,9,0,0,0,7.6,8.5s-6.7,4.1-4.9,10.5l2.6,9.2-2.6,2.4c-8.9,7.9-14.6,15.1-14.6,24.7A19.66,19.66,0,0,0,19,271.5c.2.5.6.9.6,1.2a6.17,6.17,0,0,1-.2,2c-.2,1.5-.6,5.5,3.5,7.6h2.4c-.8,3.4-.2,9.5.9,11.1s5.3-1.4,5.3-1.4a67.37,67.37,0,0,0,5.8,8.2l-3.5,4.3a8,8,0,0,0,.5,11,9.72,9.72,0,0,0,6,2.9,8.5,8.5,0,0,0,2.9,10.2c3.2,2,7.3,1.2,9.9-2.1l5.3-7.9a77.54,77.54,0,0,0,38.8,10.5c17.7,0,26.4-3.8,26.4-3.8.5-1.1-2.6-4.7-2.6-4.7a16.76,16.76,0,0,1,3.7-.6,18.83,18.83,0,0,1,3.7.6s-3.1,3.7-2.6,4.7c0,0,8.7,3.8,26.4,3.8A77.52,77.52,0,0,0,191,318.6l5.3,7.9c2.6,3.4,6.7,4.3,9.9,2.1,2.9-1.8,4.6-5.8,2.9-10.2a10,10,0,0,0,6-2.9,8,8,0,0,0,.5-11l-3.5-4.3a80.49,80.49,0,0,0,5.8-8.2s4.3,3.1,5.3,1.4c1.1-1.5,1.7-7.8.9-11.1h2.4c4.3-2.1,3.8-6.1,3.7-7.6l-.2-2,.6-1.2a20.46,20.46,0,0,0,3.1-11.4c0-9.6-5.8-16.9-14.6-24.7l-2.6-2.4s.9-2.7,2.6-9.2-4.9-10.5-4.9-10.5c4.6-.6,7.2-4.6,7.6-8.5.5-3.7-1.4-8.4-4.4-9.6,0,0-.2,6-3.5,5.3-1.2-.3-.9-2.1-.9-3.7a15.68,15.68,0,0,1,.2-2.9c.3-4.9.8-10.8-2.7-14.6a38.1,38.1,0,0,0,13.4,2.6c19.3,0,23.1-25.8,7.4-25.8Zm-218.8,10a2.6,2.6,0,1,1,2.6,2.6,2.59,2.59,0,0,1-2.6-2.6Zm8.4,9.5c-2.9,0-5.5-3.4-5.5-3.4s4.7-1.1,5.8-2.1a14.33,14.33,0,0,0,3.5,2.6C26.1,173.3,23.6,175.6,20.9,175.6Zm.7-8.8s-.6-3.5-1.4-4.3,3.5-2.1,4.6-.2c1.9,4-3.2,4.5-3.2,4.5ZM188.9,68.3c.6-1.1,2.6,1.1,5.5,1.1s2.3-5.2,3.2-7.8,3.2-1.2,5,.6.5,6.9,1.8,7.5.8-5.8,4.1-4.3c2.1.9,1.5,4.6,2.3,5s3.2-2,5.8-.8c2.4,1.2,2,4.3,2,4.3s3.4-2,5.2,2c1.7,3.8-7.6,5-6.4,9.9,1.1,4,5.6-.6,6.3,5.3.6,6.1-7,4-7,4s-8.9,7-13.3,8.7c0,0,15.7-21.4,11-25.2-1.5-1.2-2.7,2.7-3.7,2.1s-.6-2.9-1.2-4.9-2.6-2.1-2.6.8,1.1,7.5-2.3,15.4c-3.5,8.1-6.1,10.5-6.1,10.5l-9,2.6,1.1-9,4.1-6s9.8.5,9.8-7.8c0-6.9-5.6-7.6-7-7.9s-4.1.8-4.1-1.5c-.4-2.1-5.3-3.5-4.5-4.6Zm-5.5,23.1c4.4,0,4.7,4.3,4,6.6l-1.2,3.4a34.44,34.44,0,0,0-2.3,13.7.72.72,0,0,1-1.4.3c-.3-2.7-.3-7.6,2.3-14.5l1.2-3.4c.5-1.5-.2-3.1-.9-2.6a2.61,2.61,0,0,1-1.7.9,2,2,0,0,1-2.1-1.89V93.7A2,2,0,0,1,183.4,91.4Zm8.5,77.8c0,31.9-12.1,60.4-15.3,68.1-.2.5-1.5,0-1.2-.6,3.7-7.5,15.1-35.7,15.1-67.4,0-22-5.8-34.6-6.1-35.2-.6-1.2.9-1.7,1.2-.6C186,133.9,191.9,146.9,191.9,169.2Zm-.7-40.3c2.9,2.7.3,7.3.3,7.3-.3-2.4-2.3-4.4-2.9-5.5A1.59,1.59,0,0,1,191.2,128.9Zm-2.9,89c0-1.5.9-3.2,1.1-4.9.5-.2.3.5.8.3C190.7,215.7,189,216.7,188.3,217.9Zm17.2,45.6c1.7-3.4.8-7.6-.8-8.7s-1.8-1.5-1.1-2.6c.8-.9,1.1-6.3,1.2-7.8s1.7-.9,3.2.3l.6.5a44.28,44.28,0,0,1,11.6,11.4,6,6,0,0,0-10.2,4.3c-.6,5.6-.9,9.8-.9,12.5,0,1.2-1.5.2-2.9-1.5a16.5,16.5,0,0,0-4.6-3.1c-.9,1.2-3.1,6.4-4,8.1,0,0-2-4.6-3.7-6.1,0,0-2.9,4.9-5.3,3.1-1.8-1.4-1.1-2.9-.3-5.3a7.23,7.23,0,0,1,2.7-4.4c1.1-1.1,2.1.6,5.3,2.6,3.4,2,7.4-.1,9.2-3.3Zm-8.7-.9,4-6a3.68,3.68,0,0,1,1.1,2.6,3.76,3.76,0,0,1-3.7,3.7l-1.4-.3Zm-11.4,25c-.9,1.5-2,1.8-2,.8v-6c0-1.5.9-1.7,2.6-1.7,1.5-.2,4,.6,6-.6,0,0-2.1,3.8-5.8,4.1-.2.1.1,1.9-.8,3.4Zm3.2-50.5c-2.3,2.7-7.2-2.9-4.9-5.3C185.7,229.8,190.9,234.5,188.6,237.1Zm-52.1,58.3a32.69,32.69,0,0,0-12.1-2,33.78,33.78,0,0,0-12.1,2c-3.5,1.4-6.4,2.9-5.6,4.1,1.2,2,.6,3.2.6,3.2a51.53,51.53,0,0,1-41.2-9.4s7.6-1.7,7.6-15.6a74.43,74.43,0,0,0-.6-10.7c18.8,0,23.5-6.6,23.5-6.6a7.23,7.23,0,0,0,2,4.9,7,7,0,0,0,11.9-5,7.71,7.71,0,0,1,2.3,3.5c.6,2.3-.8,2.4-2.7,4-4.1,3.1,2.3,10.7,6.9,7.3l7.5-5.5s5,3.8,7.5,5.5c4.6,3.4,11-4.3,6.9-7.3-2-1.5-3.4-1.7-2.7-4a7.71,7.71,0,0,1,2.3-3.5,7,7,0,0,0,11.9,5,6.72,6.72,0,0,0,2-4.9s4.7,6.6,23.5,6.6a74.43,74.43,0,0,0-.6,10.7c0,13.9,7.6,15.6,7.6,15.6a51.53,51.53,0,0,1-41.2,9.4s-.6-1.2.6-3.2c.8-1.2-2.3-2.7-5.8-4.1ZM57.3,280.1c2,1.2,4.3.5,6,.6,1.5.2,2.6.3,2.6,1.7v6c0,1.1-1.2.8-2-.8a6,6,0,0,1-.6-3.5c-3.8-.3-6-4-6-4ZM43.8,263.5c1.7,3.4,5.8,5.3,9.2,3.5,3.4-2,4.4-3.5,5.3-2.6a7.23,7.23,0,0,1,2.7,4.4c.6,2.6,1.5,4.1-.3,5.3-2.4,1.8-5.3-3.1-5.3-3.1-1.7,1.7-3.7,6.1-3.7,6.1-.9-1.7-3.1-7-4-8.1,0,0-3.2,1.2-4.6,3.1-1.5,1.7-2.9,2.7-2.9,1.5,0-2.7-.3-6.9-.9-12.5a6.55,6.55,0,0,0-4.4-5.8,5.68,5.68,0,0,0-5.8,1.5c1.1-2,4-5.8,11.6-11.4l.6-.5c1.5-1.2,3.1-1.8,3.2-.3s.5,6.7,1.2,7.8c.8.9.3,1.5-1.1,2.6-1.6.9-2.7,5.1-.8,8.5Zm3.5-4.4a3.68,3.68,0,0,1,1.1-2.6l4,6a3.53,3.53,0,0,1-1.4.3,3.76,3.76,0,0,1-3.7-3.7Zm13.2-22c-2.3-2.7,3.1-7.3,4.9-5.3C67.7,234.2,62.7,239.8,60.5,237.1Zm-3.3-67.9c0-22.3,6-35.2,6.3-35.9.5-1.1,1.8-.6,1.2.6-.3.5-6.1,13.3-6.1,35.2a169,169,0,0,0,15.1,67.4c.3.8-1.1,1.2-1.2.6-3.1-7.5-15.3-35.9-15.3-67.9Zm3.7,48.7c-.9-1.2-2.4-2.1-1.8-4.6.3.2.2-.6.8-.3C60.1,214.7,60.9,216.3,60.9,217.9Zm-2.9-89a1.62,1.62,0,0,1,2.7,1.7c-.6,1.1-2.6,3.1-2.9,5.5-.2,0-2.7-4.4.2-7.2ZM73.2,253.1c.2,1.8-.6,2.3-2.6,1.4s-2.3-1.8-.9-2.6a4.11,4.11,0,0,0,2.3-4.1c0-2.4.2-4,1.4-3.5,2.4.9,1.5,2.6.5,4.1s-.8,2.9-.7,4.7Zm24.7-9a36.07,36.07,0,0,0-13-2.9,7.6,7.6,0,0,0,2.7-6.1,39.46,39.46,0,0,1,18.8,13.1C106.3,248.4,104.3,247,97.9,244.1Zm7.8,16.3a2.1,2.1,0,1,1-2.1-2.1,2,2,0,0,1,2.1,1.89Zm-7-11.2a12.87,12.87,0,0,0-4.6,0l-3.5.9a45.37,45.37,0,0,1-3.7-4.6s7.4-1.1,11.8,3.7Zm-12.1,1.9-1.7,1.1c-1.5.9-7.9-2.3-7.9-2.3a6.24,6.24,0,0,1,4.1-2.1C83.6,247.8,86.6,251.1,86.6,251.1Zm64.6-7c-6.6,2.9-8.4,4.3-8.4,4.3a39,39,0,0,1,18.8-13.1,7.17,7.17,0,0,0,2.7,6.1C164.2,241.2,157.8,241.4,151.2,244.1Zm16.6,3.7a6.24,6.24,0,0,1,4.1,2.1s-6.4,3.2-7.9,2.3l-1.7-1.1S165.5,247.8,167.8,247.8Zm-5.6-2.3a34.35,34.35,0,0,1-3.7,4.6l-3.5-.9a13,13,0,0,0-4.6,0c4.5-4.8,11.8-3.7,11.8-3.7Zm-14.7,14.9a2.1,2.1,0,1,1-2.1-2.1,2,2,0,0,1,2.1,1.89Zm27.8-12c-1.1-1.5-2-3.1.5-4.1,1.2-.5,1.4,1.1,1.4,3.5a4.21,4.21,0,0,0,2.3,4.1c1.2.8.9,1.7-.9,2.6-2,.9-2.7.5-2.6-1.4s.4-3.3-.7-4.7Zm-4.4-161c2.7,0,6.1,2.4,6.1,2.4l-2.7,1.5a6,6,0,0,1-3.4.8c-1.9,0-2.8-4.7,0-4.7Zm-7.8-9.3c.3-.9,2.7.5,4.7,1.5,1.2.6.9,5.2-.6,4.4-1.7-.9-3.4-2.3-3.2-3.2,0-1.6-1.2-1.6-.9-2.7Zm2.9,14a79.48,79.48,0,0,1-8.7-1.1c-7.6-1.4-21.2-13-21.2-13a65.24,65.24,0,0,1,29.5,9.3,24.29,24.29,0,0,0,.4,4.8ZM152,74c.2-1.1,1.8,0,4,.6s3.2,3.7,4.1,6c0,0-6.7-2-6.9-4C153,74.9,151.8,75,152,74Zm-7.5-2.6c2.3.3,3.7,3.4,4.7,5.5,0,0-6.9-1.2-7.3-3.2-.3-1.7-1.5-1.4-1.5-2.3.3-1.1,1.9-.3,4.1,0Zm-11.6-1.7c2.3,0,4.1,2.7,5.3,4.7,0,0-7-.3-7.6-2.1-.5-1.5-1.7-1.1-1.8-2.1S130.6,69.7,132.9,69.7Zm-8.3,1.2c.3,0,2.1,1.5,2.1,2.4,0,.5-1.5.2-2.1.2-.8,0-2.3.3-2.3-.2C122.3,72.5,124.2,70.9,124.6,70.9Zm0,13.1a4.4,4.4,0,1,1-4.4,4.4A4.44,4.44,0,0,1,124.6,84Zm-8.2-14.3c2.3,0,4.1-.6,4,.5s-1.2.6-1.8,2.1c-.6,1.8-7.6,2.1-7.6,2.1C112.3,72.5,114.1,69.7,116.4,69.7Zm-33,17.9s15.6-9.8,29.5-9.3c0,0-13.6,11.6-21.2,13A49.28,49.28,0,0,1,83,92.4a16.93,16.93,0,0,0,.4-4.8Zm21.2-16.2c2.3-.3,4-1.1,4,0s-1.2.8-1.5,2.3c-.3,2-7.3,3.2-7.3,3.2C101,74.7,102.4,71.7,104.6,71.4ZM93.2,74.6c2.1-.6,3.8-1.7,4-.6s-1.1.9-1.2,2.6c-.2,2-6.9,4-6.9,4C90,78.4,90.9,75.2,93.2,74.6Zm-11.9,5c2-.9,4.4-2.4,4.7-1.5.3,1.1-.9,1.1-.9,2.6,0,1.1-1.5,2.4-3.2,3.2-1.5,1.1-1.7-3.7-.6-4.3Zm-3.1,7.8c2.7,0,1.8,4.7,0,4.7a9.44,9.44,0,0,1-3.4-.8l-2.7-1.5s3.4-2.4,6.1-2.4Zm-5.6,8.2c6,3.2,22,.6,27-2.1s15.7-3.7,15.7-3.7a9.21,9.21,0,0,0,9.2,7.9,9,9,0,0,0,6.6-2.7,9.17,9.17,0,0,0,2.6-5.2s10.7.9,15.7,3.7,21.1,5.3,27,2.1l4.9,4c-4.6,12.2-1.8,19.4-1.8,19.4a7.9,7.9,0,0,0-4.3,2.3,8.5,8.5,0,0,0,6,14.4,86,86,0,0,0,5.8,33.7c0,35.1-14.8,66.2-15.7,67.9s-6.1,1.5-4.7-2.7.3-5.5-4.4-4.4a46,46,0,0,0-31.1,29c-.9,2.3-4,3.7-6.4-4.9-2.4,8.5-5.5,7.2-6.4,4.9-9.5-22.7-26.4-27.9-31.1-29s-5.8.2-4.4,4.4-4,4.3-4.7,2.7c-.9-1.7-15.7-32.8-15.7-67.9,0-21.5,5.8-33.7,5.8-33.7A8.5,8.5,0,0,0,69.9,119s2.7-7-1.8-19.4l4.5-4Zm108.7,35a3.42,3.42,0,0,1-3.5-3.5,3.83,3.83,0,0,1,2.4-3.4Zm-113.4,0,1.1-6.9a3.58,3.58,0,0,1,2.4,3.4A3.42,3.42,0,0,1,67.9,130.6Zm-2-39.2A2,2,0,0,1,68,93.29v.21a2,2,0,0,1-1.89,2.1H65.9a1.75,1.75,0,0,1-1.7-.9c-.8-.5-1.4,1.1-.9,2.6l1.2,3.4a31.41,31.41,0,0,1,2.3,14.5.72.72,0,0,1-1.4-.3,27.9,27.9,0,0,0-2.3-13.7l-1.2-3.4c-.7-2.2-.4-6.4,4-6.4ZM25.5,76a3.69,3.69,0,0,1,5.2-2s-.5-3.1,2-4.3,4.9,1.2,5.8.8.2-4.1,2.3-5c3.2-1.5,2.7,4.9,4.1,4.3s0-5.8,1.8-7.5,4.1-3.2,5-.6.3,7.8,3.2,7.8,4.9-2.3,5.5-1.1-4.3,2.4-4.3,4.9-2.6,1.4-4.1,1.5-7,.9-7,7.9c0,8.2,9.8,7.8,9.8,7.8l4.1,6,.9,9-9-2.6s-2.6-2.4-6.1-10.5S42.4,79.7,42.4,77s-2-2.6-2.6-.8c-.6,2-.3,4.4-1.2,4.9s-2.1-3.4-3.7-2.1c-4.7,3.8,11,25.2,11,25.2-4.4-1.7-13.3-8.7-13.3-8.7s-7.8,2.1-7-4c.6-6.1,5.2-1.4,6.3-5.3,1.2-5.4-8.1-6.4-6.4-10.2Zm8.7,72.7c10.5,14.8,1.8,28.8-6.4,28.8,0,0,12.4-13.6,1.7-23.7-6-5.6-20-17.4-20-29.8s11.7-16.6,21.2-16.6c11.1,0,16.9,6,18.6,4.1,1.5-1.7-2.3-5.5-2.3-5.5s8.1-1.5,7.5,8.4c-.2,1.7,1.4,2.7,2,.9.8-2.6-.5-7.3-.5-7.3s4,1.1,5.8,8.5,1.4,9.8,1.4,9.8-4.9-5.3-7.2-2.7c0,0-10.7-13-22.1-13S23.7,121,28.7,126.2s19.5,20.1,19.5,32.2-8.5,15.4-8.5,15.4,7.9-14.2-2.9-27c-1.9-1.6-4,.1-2.6,1.9Zm-1.1-26.2.5.5c2.9,2.9,5,5.8,7.3,8.1.9.9,0,2-1.1.9-2.6-2.6-4.9-5.5-7.2-7.9l-.5-.5c-1.8-2-2.7-4.9-2.1-6.1,0,0,.5-1.2.9-1.1s.3,1.5.3,1.5c-.3.5.2,2.8,1.9,4.6Zm-4.4,161a2.73,2.73,0,0,1,2-3.7c2.4-.6,3.5-2.6,2.4-4.4a2.38,2.38,0,0,0-4.4.5c-.9,2.1-1.7,3.2-3.5,2.3s-.8-2-.8-5.3-3.7-4.7-3.7-12.5,4.9-13.9,13-21.1,10.4-13,14.2-22.7,4.6-22.3,2.7-22.3c-1.7,0-3.4,8.7-4.9,15.9s-3.2,10.4-5.5,9c-2.4-1.2.6-6.7,2.1-8.9a4.46,4.46,0,0,0,0-4.6,7.64,7.64,0,0,1-5.8,2.9c-3.7,0-4.1-4.1-4.1-4.1,5.3,4.1,8.9-2.4,8.9-7.5s-2.3-15.4,4.6-15.4S57,194.6,57,202.2c0,7.8-1.7,8.1-1.7,11.6a10,10,0,0,0,3.8,7.8c2.1,1.8,3.5,3.2,3.2,4.1a19.81,19.81,0,0,0-1.2,3.7c-.5,2-2.6.2-4.3-2s-3.8-.8-4.9.6-1.7.3-1.1-1.2-1.5-2.1-2.3-.8c-.6,1.4-5.3,6.9-7,8.9-1.5,2-1.5,4.7-3.5,6.3-1.1.8-14.8,10.5-14.8,17.5,0,7.5,7,4.1,8.4,2.3s2.4-.9,2.6.6,1.4,16,.8,16.9c-.4.9-6.3,5-6.3,5Zm9.1,28.7c-2.7-2.9.5-6.7,3.4-4.7,2.1,1.5,2.6,5.8,2.6,5.8S39.9,314.6,37.8,312.2Zm11.5,11.4c-2.6,3.4-6.3.2-4.1-4.1C45,319.5,51.9,320.3,49.3,323.6Zm65-1.4a71.31,71.31,0,0,1-79.5-34.6c-.8-1.4-.8-3.1,1.2-3.8s6-4.7,7.3-5.8,2.6-2.7,4.3.5a56.59,56.59,0,0,0,61,29.1c1.8-.3,2.3,1.1,3.1,4.1s2.3,7.2,3.4,8.1C115.8,320.7,117,321.5,114.3,322.2Zm15.1-6.4a24.3,24.3,0,0,0-4.7-.8,15,15,0,0,0-4.7.8c-1.7.3-2.7-1.5-3.1-3.5-.2-2-1.4-4.3-2.7-6.9s-2-4.6.2-5.3a32.66,32.66,0,0,1,20.8,0c2.1.8,1.4,2.6.2,5.3s-2.4,4.9-2.7,6.9c-.6,2-1.8,3.8-3.3,3.5Zm70.5,7.8c-2.6-3.4,4.1-4.1,4.1-4.1C206.1,323.6,202.5,326.8,199.9,323.6Zm11.4-11.4c-2.1,2.3-6,1.1-6,1.1s.3-4.1,2.6-5.8C210.9,305.5,214.1,309.3,211.3,312.2Zm3.2-24.6A71.71,71.71,0,0,1,135,322.2c-2.9-.8-1.7-1.5-.6-2.4s2.6-5.2,3.4-8.1,1.2-4.4,3.1-4.1a57,57,0,0,0,61-29.1c1.7-3.1,2.9-1.5,4.3-.5s5.3,5,7.3,5.8c1.8.8,1.8,2.4,1,3.8Zm2.2-83.3s-.3,4.1-4.1,4.1a7.64,7.64,0,0,1-5.8-2.9,4.41,4.41,0,0,0,0,4.6c1.5,2.1,4.4,7.6,2.1,8.9s-4-2-5.5-9c-1.5-7.2-3.2-15.9-4.9-15.9s-.9,12.4,2.9,22.3a48,48,0,0,0,14.2,22.7c8.1,7.2,13,13.3,13,21.1s-3.7,9.2-3.7,12.5.9,4.4-.8,5.3-2.6-.3-3.5-2.3-3.4-2.3-4.4-.5,0,3.8,2.4,4.4a2.71,2.71,0,0,1,2,3.7s-6-4.1-6.6-5,.8-15.4.8-16.9c.2-1.5,1.2-2.4,2.6-.6s8.4,5.2,8.4-2.3c0-7-13.7-16.8-14.8-17.5-2-1.5-2-4.3-3.5-6.3s-6.3-7.5-7-8.9-2.9-.9-2.3.8c.6,1.5,0,2.6-1.1,1.2s-3.2-2.7-4.9-.6-3.8,4-4.3,2a26.55,26.55,0,0,0-1.2-3.7c-.3-.9,1.1-2.1,3.2-4.1a10,10,0,0,0,3.8-7.8c0-3.5-1.7-4-1.7-11.6,0-7.8,4.4-20.6,11.1-20.6s4.6,10.4,4.6,15.4,3.5,11.8,9,7.5ZM215,148.7c1.4-1.8-.8-3.5-2.4-1.4-11,13-2.9,27-2.9,27s-8.5-3.5-8.5-15.4c0-12.1,14.5-26.9,19.5-32.2s6.3-15.6-5.2-15.6-22.1,13-22.1,13c-2.3-2.7-7.2,2.7-7.2,2.7s-.5-2.1,1.4-9.8c1.8-7.5,5.8-8.5,5.8-8.5s-1.4,4.6-.5,7.3c.6,1.8,2.1.8,2-.9-.6-9.8,7.5-8.4,7.5-8.4s-4,3.8-2.3,5.5c1.5,1.7,7.3-4.1,18.6-4.1,9.5,0,21.2,4.1,21.2,16.6s-14,24.1-20,29.8c-10.7,10.1,1.7,23.7,1.7,23.7-8.5-.3-17.2-14.3-6.6-29.3Zm2.9-30.9s-.2-1.5.3-1.5c.5-.2.9,1.1.9,1.1.6,1.2-.3,4.1-2.1,6.1l-.5.5c-2.4,2.4-4.6,5.5-7.2,7.9-1.1,1.1-2,0-1.1-.9,2.3-2.3,4.4-5,7.3-8.1l.5-.5c1.7-1.7,2.2-4,1.9-4.6Zm6.4,44.5c.9-2,5.3-.8,4.6.2a18.5,18.5,0,0,0-1.4,4.3S222.5,166.3,224.3,162.3Zm3.9,13.3c-2.9,0-5.3-2.3-3.8-2.9a14.33,14.33,0,0,0,3.5-2.6c1.1.9,5.8,2.1,5.8,2.1S231.1,175.6,228.2,175.6Zm5.8-6.9a2.59,2.59,0,0,1-2.6-2.6h0a2.6,2.6,0,0,1,5.2,0A2.52,2.52,0,0,1,234,168.7Z" transform="translate(-4.6 -12.74)"/><path d="M45,288.8a3.62,3.62,0,0,0-.2-2.1l-.3-1.1c-.2-.8-.5-1.7.5-2.3a1.45,1.45,0,0,1,2.1.6c1.2,1.8-.8,2.9-.5,3.5a.63.63,0,0,0,.8.2l1.2-.8c.2-.2.2-.3.2-.6a4.76,4.76,0,0,0-.9-2.9,4.1,4.1,0,0,0-2.1-1.8,3.55,3.55,0,0,0-3.1.5,3.16,3.16,0,0,0-1.5,2.3,3.57,3.57,0,0,0,.5,2.3,5.49,5.49,0,0,1,.5,1.7,1.24,1.24,0,0,1-.8,1.2,1.91,1.91,0,0,1-2.6-.8,3.37,3.37,0,0,1-.5-1.7,2.51,2.51,0,0,1,.6-1.4,1,1,0,0,0,.2-.9c-.1-.3-.8-.3-1.1-.2a3,3,0,0,0-1.1,2.4,5,5,0,0,0,.9,2.4,4.67,4.67,0,0,0,2.4,2,3.62,3.62,0,0,0,3.2-.5,2.37,2.37,0,0,0,1.6-2Zm9.6,6a.65.65,0,0,1,.8-.2c.2,0,.5.2.6,0,.3-.3.2-.6-.2-.9l-.8-.9c-.2-.3-.5-.6-.9-.3-.2.2-.2.3-.2.6s.2.5-.2.8L50,297.1a6.88,6.88,0,0,1-2.3,1.5,2.64,2.64,0,0,1-2.3-.6,2,2,0,0,1-.3-2.4,5.67,5.67,0,0,1,1.8-2l3.4-2.9c.5-.5.6-.5,1.1-.3.2.2.3.2.6,0s.2-.6,0-.9l-1.7-2c-.2-.2-.5-.5-.8-.2s-.2.3-.2.6v.2c0,.3-.3.6-.5.8L45.3,292a5.67,5.67,0,0,0-2.3,3.4,4.08,4.08,0,0,0,1.1,3.1,3.79,3.79,0,0,0,3.2,1.5,7.3,7.3,0,0,0,3.5-2l3.8-3.2Zm2.6,5.3a1.69,1.69,0,0,1-.2-2.3,1.71,1.71,0,0,1,2.3-.2c1.7,1.4.2,3.1.8,3.5a.49.49,0,0,0,.8-.2l.9-1.2c.2-.2,0-.5,0-.6a6.87,6.87,0,0,0-1.7-2.6,4.64,4.64,0,0,0-2.6-1.1,3.19,3.19,0,0,0-2.7,1.4,4,4,0,0,0-.8,2.7,5.29,5.29,0,0,0,1.1,2.1,8.46,8.46,0,0,1,.9,1.5,1.49,1.49,0,0,1-.3,1.4,1.9,1.9,0,0,1-2.7,0,2.14,2.14,0,0,1-.9-1.5,2.62,2.62,0,0,1,.2-1.5c0-.3.2-.8-.2-.9-.3-.3-.8-.2-1.1.3a2.91,2.91,0,0,0-.2,2.7,6.23,6.23,0,0,0,1.5,2.1,4,4,0,0,0,2.9,1.1,4.22,4.22,0,0,0,2.9-1.4,3.19,3.19,0,0,0,.8-2.4,5.28,5.28,0,0,0-.9-2l-.8-.9Zm7.9,11.6a3,3,0,0,1-2.6-.2,2.79,2.79,0,0,1-1.4-2.6,14.49,14.49,0,0,1,1.1-3.1,8.76,8.76,0,0,1,2.3-2.4,2.92,2.92,0,0,1,2.7-.2,2,2,0,0,1,.9,1.2,2,2,0,0,1,0,1.5c0,.3-.2.9.2,1.1s.6.2.8-.3a5.48,5.48,0,0,0,.8-1.5c0-.3,0-.5-.2-.6a4.58,4.58,0,0,0-2.1-2.4c-2.4-1.5-6.1-.6-7.9,2.4s-.9,6.3,1.5,7.6a5.3,5.3,0,0,0,2.7.8c.6,0,1.8-.3,2.1-.9a.49.49,0,0,0-.2-.8c.1.1-.4.4-.7.4Zm4.9,3.7c-.2-.3,0-.6.2-.9l3.1-6.9a2.41,2.41,0,0,1,.6-.8h.2c.2,0,.5,0,.5-.3.2-.5-.2-.6-.3-.8L72,304.6a.49.49,0,0,0-.8.2c-.2.3,0,.5.2.6l.2.2c.2.3,0,.6-.2.9l-3.1,6.9a2.41,2.41,0,0,1-.6.8h-.2c-.2,0-.5,0-.5.3-.2.5.2.6.3.8l2.3,1.1a.49.49,0,0,0,.8-.2l-.4-.8Zm11.8-6.1a4.25,4.25,0,0,0-2.3-1.4l-4-1.2c-.3-.2-.6-.2-.8.3-.2.3,0,.5.2.6l.2.2c.2.3,0,.6,0,.9l-2.3,7.2c-.2.3-.2.6-.5.8h-.2c-.2,0-.3.2-.5.3-.2.5.2.6.5.8l2.4.8c.3.2.9.3,1.1-.2.2-.3,0-.5-.2-.6a.71.71,0,0,1-.3-.6.55.55,0,0,1,.2-.5l.8-2.3a7.69,7.69,0,0,0,3.7.3,4.1,4.1,0,0,0,2.9-2.4,4.3,4.3,0,0,0-.9-3Zm-2,2.1c-.6,1.8-2.4,1.8-3.7,1.7l1.1-3.5c.2-.3.2-.6.5-.8s.6,0,.9,0A1.89,1.89,0,0,1,79.8,311.4Z" transform="translate(-4.6 -12.74)"/><path d="M89.8,310.2l-6.1-1.1a.7.7,0,0,0-.8.5c0,.3,0,.5.2.6l.2.2c.3.2.2.6.2.9l-1.2,7.5c0,.3,0,.8-.5.8h-.2l-.5.5c-.2.5.3.6.6.6l6.4,1.1c.6.2.8,0,.9-.6a4.54,4.54,0,0,0,.6-1.4.56.56,0,0,0-.5-.6,1.15,1.15,0,0,0-.9.6,2.21,2.21,0,0,1-2,.5c-1.8-.3-2-.5-1.7-2l.5-2.7,2,.3c.9.2.8.6,1.2.8s.6-.8.6-1.2.2-1.1-.3-1.2-.5.5-1.4.3l-2-.3.5-2.9c0-.2.2-.3.5-.5h1.1a3.5,3.5,0,0,1,1.2.3l.8.8.5.6q.45,0,.6-.6c0-.3.2-1.2,0-1.5.2-.2-.1-.2-.5-.3Zm10.6,11.1a1.07,1.07,0,0,1-.6-.9,12.12,12.12,0,0,0-1.8-3.8,3.45,3.45,0,0,0,2.1-3.1,3,3,0,0,0-1.2-2.3,3.28,3.28,0,0,0-2.1-.5l-4.7-.2a.56.56,0,0,0-.6.5c0,.3.2.3.3.5l.2.2a.76.76,0,0,1,.2.9l-.2,7.5c0,.3,0,.8-.3.9l-.2.2c-.2.2-.3.2-.3.5a.53.53,0,0,0,.6.6h2.6a.56.56,0,0,0,.6-.5c0-.3-.2-.3-.3-.5l-.2-.2c-.3-.2-.2-.6-.2-.9v-2.7l1.4-.2a11.54,11.54,0,0,1,1.5,3.7c0,.5-.6.5-.6.9,0,.6.5.6.8.6H100c.3,0,.8,0,.8-.5s-.3-.5-.4-.7Zm-6.1-5.2V313a2.15,2.15,0,0,1,.2-1.1c.2-.3.8-.3,1.1-.3a1.62,1.62,0,0,1,1.8,2c.1,1.9-1.9,2.5-3.1,2.5Zm15.2,2.3c-.3,0-.6.6-.8.9a2.19,2.19,0,0,1-1.8,1.1c-1.8.2-2,.2-2.1-1.5l-.3-2.7,2-.3c.9-.2.9.5,1.4.5s.3-.9.3-1.4-.2-1.1-.6-1.1-.3.6-1.2.8l-2,.3-.4-3c0-.2.2-.5.3-.5a2,2,0,0,1,1.1-.3c.5,0,.9-.2,1.4,0,.5,0,.6.2.9.5s.3.5.6.5.5-.3.5-.8a3,3,0,0,0-.5-1.5,1.2,1.2,0,0,0-.8-.2l-6.3.8a.58.58,0,0,0-.6.6c0,.3.2.3.3.5h.2a.83.83,0,0,1,.3.8l.9,7.5c0,.3.2.6-.2.9l-.2.2a.71.71,0,0,0-.3.6c0,.5.5.5.8.5l6.6-.8c.6,0,.8-.2.8-.8l.2-1.5a.56.56,0,0,0-.5-.6Zm46.1-7.6a1.34,1.34,0,0,0-.9-.2h-5.8a.58.58,0,0,0-.6.6c0,.3.2.3.3.5l.2.2c.3.2.3.6.3.9v7.5c0,.3,0,.8-.3.9l-.2.2c-.2.2-.3.2-.3.5,0,.5.3.5.6.5h2.6a.58.58,0,0,0,.6-.6c0-.3-.2-.3-.3-.5l-.2-.2c-.3-.2-.3-.5-.3-.9V317h2c.9,0,.8.6,1.2.6.6,0,.5-.9.5-1.4s0-1.1-.5-1.1-.3.6-1.2.6h-2v-2.6c0-.3,0-.8.2-.9s.9-.2,1.2-.2a2.32,2.32,0,0,1,2.3.9c.2.2.3.5.6.5.5,0,.3-.6.3-.9,0-.6,0-1.5-.3-1.7Zm10.1,8.9h-.2c-.3-.2-.3-.5-.5-.8l-1.4-7.5c0-.3-.2-.6.2-.9l.2-.2c.2-.2.3-.3.2-.6a.7.7,0,0,0-.8-.5l-2.3.6a.58.58,0,0,0-.6.6c0,.3.2.3.5.5h.2c.3.2.3.5.5.8l1.4,7.3c0,.3.2.6-.2.9l-.2.2c-.2.2-.3.3-.2.6,0,.5.5.5.8.5l2.4-.5a.58.58,0,0,0,.6-.6l-.6-.4ZM177.6,307l-.2-.5a.85.85,0,0,1,.3-.6c.2-.2.3-.3.2-.6-.2-.5-.8-.3-1.1-.2l-1.1.5c-.3.2-.9.3-.6.8.2.3.3.3.5.3s.5,0,.6.2l.3.5,1.8,4.9-2.7-2.1a41.67,41.67,0,0,0-3.7-2.6c-.5-.3-.6-.3-1.1,0l-1.7.6c-.3.2-.8.3-.5.8a.68.68,0,0,0,.6.3c.6,0,.8.6,1.1,1.2l2.4,6.6.2.5a.85.85,0,0,1-.3.6c-.2.2-.3.3-.2.6.2.5.8.3,1.1.2l1.1-.5c.3-.2.9-.3.6-.8-.2-.3-.3-.3-.5-.3s-.5,0-.6-.2l-.3-.5-2.4-6.1,6.4,4.9a7.89,7.89,0,0,0,1.5,1.2c.3.1.5.2.8,0,.8-.3.8-.6.5-1.4l-3-8.3Zm12.2,2.7h-.2c-.3,0-.5-.3-.6-.6l-4-6.4c-.2-.3-.5-.6-.3-.9l.2-.2c0-.2.2-.3,0-.6a.65.65,0,0,0-.8-.2l-2.1,1.4c-.3.2-.5.5-.3.8s.3.3.6.3h.2c.3,0,.5.3.6.6l4,6.4c.2.3.5.6.3.9v.2c-.2.2-.2.3,0,.6a.76.76,0,0,0,.9.2l2.1-1.4c.3-.2.5-.5.3-.8a1.48,1.48,0,0,0-.9-.3Zm12.5-10.2c-.5.2-.6,0-1.1-.3a8.49,8.49,0,0,0-4-1.5,3.23,3.23,0,0,0-.6-3.7,2.39,2.39,0,0,0-2.4-.9,6.66,6.66,0,0,0-2,1.2l-3.5,3.2c-.2.2-.5.5-.2.8s.3.2.6.2h.2a1,1,0,0,1,.8.5l5.2,5.5c.2.3.5.5.5.8v.2c0,.2-.2.5.2.6a.52.52,0,0,0,.8,0l1.8-1.7c.2-.2.5-.5.2-.8s-.3-.2-.6-.2H198a1,1,0,0,1-.8-.5l-1.8-2,.8-1.1c.9.2,3.2.9,3.7,1.5.3.3-.2.6.2,1.1s.8,0,.9-.2l2-1.8c.2-.2.5-.5.2-.8l-.9-.1Zm-8.1.6-2.1-2.3c-.2-.3-.6-.6-.6-.9a1.35,1.35,0,0,1,.5-.9,1.65,1.65,0,0,1,2.7.2c1.5,1.3.4,3-.5,3.9Zm16-13.1a.49.49,0,0,0-.8.2c-.2.3,0,.8.2,1.1a1.83,1.83,0,0,1-.5,2c-1.1,1.5-1.2,1.5-2.6.6l-2.3-1.5,1.1-1.7c.5-.8.9-.3,1.2-.8s-.5-.9-.8-1.1-.9-.6-1.2-.2.3.6-.2,1.4l-1.1,1.7-2.4-1.7c-.2-.2-.3-.3-.2-.6a2.7,2.7,0,0,1,.5-1.1l.9-1.1c.3-.3.6-.3,1.1-.3a.83.83,0,0,0,.8-.3c.2-.3,0-.6-.3-.8a4.24,4.24,0,0,0-1.4-.6c-.3,0-.5.3-.6.5l-3.5,5.2c-.2.3-.3.6,0,.9s.5.2.6,0h.2c.3-.2.6.2.9.3l6.3,4.3c.3.2.6.3.6.6v.2c0,.2,0,.5.3.6.3.3.6,0,.8-.3l3.7-5.3c.3-.5.3-.6-.2-1.1l-1.1-1.1Zm-84.6,22.6c-.3,0-.6.6-.8.9a1.85,1.85,0,0,1-1.8,1.1c-2,.3-2.1.2-2.3-1.5l-.5-2.9,2.1-.3c.9-.2.9.5,1.4.5.6-.2.3-1.1.3-1.5s-.2-1.1-.6-1.1-.3.6-1.2.8l-2.1.3-.5-3.1.3-.6a2.66,2.66,0,0,1,1.2-.3l1.4-.2c.5,0,.6.2.9.6a1,1,0,0,0,.8.5c.3,0,.5-.5.5-.8a3.33,3.33,0,0,0-.5-1.5,1.2,1.2,0,0,0-.8-.2l-6.6.9a.58.58,0,0,0-.6.6c0,.3.2.3.5.5h.2c.3.2.3.5.5.9l1.2,7.9c0,.3.2.8-.2.9l-.2.2a.71.71,0,0,0-.3.6c0,.5.5.5.8.5l6.9-1.1c.6-.2.8-.2.8-.9l.2-1.5-1-.2Z" transform="translate(-4.6 -12.74)"/><path d="M134.1,302l-7.2-1.5c-.2,0-.5-.2-.6,0-.3.2-.5.9-.6,1.2l-.2.5c-.2.3,0,.6.5.8s.9-1.2,2.6-.9c.6.2.5.5.3,1.1l-1.7,7.8a1.05,1.05,0,0,1-.5.9h-.2l-.5.5c-.2.5.3.6.6.8l2.6.6c.3,0,.8,0,.8-.5,0-.3,0-.5-.2-.6l-.2-.2c-.3-.3-.2-.6,0-.9l1.7-7.8c.2-.6.2-.9.8-.8,1.5.3,1.4,1.7,2,1.8a.56.56,0,0,0,.6-.5v-.6c0-.3.2-1.2,0-1.4a.71.71,0,0,0-.6-.3Z" transform="translate(-4.6 -12.74)"/><path class="cls-1" d="M97.2,136.5c0-7,0-15.3-3.5-20.4,13.7,0,27.9-1.5,41.7-1.5,12.2,0,23.3,5.3,23.3,18.9s-10.8,20.1-22,24.9v.3c14.5,3.4,27.2,9.2,27.2,25.9,0,24.7-18.8,31.9-40.1,31.9-10.7,0-21.2-.6-31.7-.6,5.2-11.1,5.2-27.3,5.2-39.4v-40Zm14,21.4h4.3c13.7,0,27.9-4.4,27.9-21.1,0-14-9.6-16.2-22.4-16.2-3.1,0-6.3.3-9.8.6Zm0,30.4c0,18.2,0,22.1,10.5,22.1,16,0,25.8-6.3,25.8-23,0-21.5-15.7-23.8-33.7-23.8h-2.6v24.7Z" transform="translate(-4.6 -12.74)"/><path class="cls-1" d="M296.3,99c0-10.5,0-22.7-5.2-30.7,20.6,0,41.7-2.3,62.3-2.3,18.3,0,34.9,7.9,34.9,28.4s-16.2,30.2-32.8,37.2v.5c21.8,4.9,40.6,13.6,40.6,38.9,0,37.1-28.1,47.8-60,47.8-15.9,0-31.6-.9-47.6-.9,7.8-16.6,7.8-40.7,7.8-58.7V99Zm21.1,31.9h6.3c20.6,0,41.7-6.6,41.7-31.4,0-21.1-14.3-24.1-33.6-24.1-4.4,0-9.3.5-14.5.9v54.6Zm0,45.5c0,27.2,0,33.1,15.7,33.1,24,0,38.6-9.3,38.6-34.5,0-32-23.5-35.6-50.4-35.6h-4v37Zm108.6-26a107.83,107.83,0,0,0-.9,13.1c0,21.8,9.8,42.6,34.2,42.6,11.4,0,22.7-4.7,28.4-11v2.6c0,12.4-19.7,24-37.1,24-30.7,0-45.2-27.6-45.2-56,0-30.5,16.9-56,49-56,22.4,0,35.9,14.8,35.9,30.1,0,10.8-7.8,10.8-22.3,10.8H426v-.2Zm25.5-7c11.4,0,17.5,0,17.5-8.9,0-8.7-6.4-17.9-17.9-17.9-14.8,0-21.1,14.3-24,26.7h24.4Zm55.1,7.5c0-16.6,0-32.8-6.1-37.7,8.7-.3,16.9-1.2,19.7-1.2,4.3,0,1.7,11.7,4.3,11.7,1.2,0,8.9-14,22.7-14,8.2,0,12.8,3.2,12.8,8.9,0,4.4-2.3,7.8-8.2,7.8-4.4,0-9.2-.8-14.8-.8-11.7,0-13.1,8.2-13.1,18.5v48.2c0,8.7,0,18.8,4.3,25.5H502.4c4.3-6.9,4.3-16.9,4.3-25.5l-.1-41.4Zm166.3-.5a107.83,107.83,0,0,0-.9,13.1c0,21.8,9.8,42.6,34.2,42.6,11.4,0,22.7-4.7,28.4-11v2.6c0,12.4-19.7,24-37.1,24-30.7,0-45.2-27.6-45.2-56,0-30.5,16.9-56,49-56,22.4,0,35.9,14.8,35.9,30.1,0,10.8-7.8,10.8-22.3,10.8h-42v-.2Zm25.6-7c11.4,0,17.5,0,17.5-8.9,0-8.7-6.3-17.9-17.9-17.9-14.8,0-21.1,14.3-24,26.7h24.4Zm49.8,74.5c4.3-6.6,4.3-16.6,4.3-25.3V81c0-9.6,0-18.8-6.1-23.5L770,53.7V192.4c0,8.7,0,18.8,4.3,25.3H748.4v.2ZM804,163.5c0,21.8,9.8,42.6,34.2,42.6,11.4,0,22.7-4.7,28.4-11v2.6c0,12.4-19.7,24-37.1,24-30.7,0-45.2-27.6-45.2-56,0-30.5,16.9-56,49-56,22.4,0,35.9,14.8,35.9,30.1,0,10.8-7.8,10.8-22.3,10.8h-42m25.6-7.2c11.4,0,17.5,0,17.5-8.9,0-8.7-6.3-17.9-17.9-17.9-14.8,0-21.1,14.3-24,26.7h24.4Z" transform="translate(-4.6 -12.74)"/><path class="cls-1" d="M961,113.3c-4.3,7.5-6.3,12.4-9.6,20.6l-33,84.5c-6.3,15.9-26.2,66.2-63.3,66.2-20.4,0-40.4-12.4-38.6-26.4,56.8,35.2,103.2-6.7,83.3-65.9l-8.4-28.2c-3.5-11.9-12.2-41-20.1-50.8,4.7-.5,14.5-1.4,17.4-1.4,4,0,5.2,2.1,6.6,6.9l20.1,68.7c1.2,3.8,1.7,7,3.2,7s2.3-3.8,3.5-7L934,150.3c2.1-6.3,6.9-21.5,6.9-28.4,0-4.3-1.2-6.1-2.6-8.4H961ZM571.7,180.8c0-11.7-.3-26.6-.3-44.1,0-16.9.3-31,.3-42.4,0-21.4-.9-33.9-7.3-38l24-3.5V155.6c21.8-15.3,32.3-29.3,32.3-36.6a12.41,12.41,0,0,0-1.8-6.6h23.7l-30.2,32.3a111.63,111.63,0,0,1-8.9,8.2c28.8,36.9,41.5,61,49.7,64.4H628.8l-34.5-52.2c-1.8-3.1-3.8-4.7-5.2-4.7-.3,0-.5.3-.8.3v26.7c0,16.6.5,26.6,4.9,29.8H566.5c4.5-2.8,5.2-15,5.2-36.4Z" transform="translate(-4.6 -12.74)"/></svg>